<svg xmlns="http://www.w3.org/2000/svg" width="45.265" height="45.625" viewBox="0 0 45.265 45.625">
    <g id="Сгруппировать_836" data-name="Сгруппировать 836" transform="translate(-340.709 -9081.213)">
      <g id="Компонент_9_1" data-name="Компонент 9 – 1" transform="translate(342.123 9082.627)">
        <g id="Сгруппировать_837" data-name="Сгруппировать 837" transform="translate(-342.123 -9081.627)">
          <path id="Контур_160" data-name="Контур 160" d="M-500.009,9031.535l10.847,10.846a4.284,4.284,0,0,0,6.06,0l2.517-2.517a4.286,4.286,0,0,1,6.059,0l.181.181a4.285,4.285,0,0,1,0,6.059l-11.607,11.607a4.284,4.284,0,0,0,0,6.06h0a4.286,4.286,0,0,0,6.06,0l2.774-2.774a4.286,4.286,0,0,1,6.06,0l12.493,12.493" transform="translate(842.132 50.092)" fill="none" stroke="#000" stroke-miterlimit="10" stroke-width="4"/>
          <path id="Контур_161" data-name="Контур 161" d="M-456.018,9054.367v21.522h-21.454l-3.207-3.2,1.678-.009h19.775V9051.17Z" transform="translate(841.992 49.949)"/>
        </g>
      </g>
    </g>
  </svg>
  